<?xml version="1.0" encoding="UTF-8" standalone="no"?>
<svg
   xmlns:dc="http://purl.org/dc/elements/1.1/"
   xmlns:cc="http://creativecommons.org/ns#"
   xmlns:rdf="http://www.w3.org/1999/02/22-rdf-syntax-ns#"
   xmlns:svg="http://www.w3.org/2000/svg"
   xmlns="http://www.w3.org/2000/svg"
   xmlns:xlink="http://www.w3.org/1999/xlink"
   xmlns:sodipodi="http://sodipodi.sourceforge.net/DTD/sodipodi-0.dtd"
   xmlns:inkscape="http://www.inkscape.org/namespaces/inkscape"
   width="680"
   height="278"
   id="svg2"
   version="1.1">
  <g
     inkscape:label="Layer 1"
     inkscape:groupmode="layer"
     id="layer1"
     transform="translate(-35.000019,-133.14546)">
    <path
       d="m 110.09251,203.77312 c 121.94255,-69.05338 266.37445,-87.76725 401.88252,-52.02294 44.48835,11.70231 90.77455,30.25274 130.40874,53.641 2.7131,1.99397 5.13201,4.78879 6.66835,7.79609 3.07267,5.80211 3.54665,12.47046 1.43827,18.66484 -8.61328,20.67515 -17.66786,41.67719 -22.96331,63.4147 -0.34323,2.23913 -0.24516,4.51095 0.37591,6.70104 1.14408,4.13503 3.85718,7.51824 7.6163,9.57758 1.71612,0.91527 3.53031,1.51999 5.47524,1.71612 20.0214,1.68343 41.70988,-2.7131 61.42074,0.62107 4.10234,1.02968 7.73071,3.80816 9.77371,7.51824 0.91526,1.61806 1.61805,3.69375 1.81418,5.52427 l 0.11441,0.98064 0.0327,0.98064 -0.0163,0.99699 -0.0817,0.98064 -0.14709,0.94795 -0.21248,0.96429 -19.1715,77.56861 -639.033902,-0.0163 -19.171507,-77.55227 -0.212472,-0.96429 -0.147096,-0.94795 -0.08172,-0.98064 -0.01634,-0.99699 c 0,-1.69977 0.277848,-3.18708 0.800855,-4.78879 1.095048,-3.39955 3.43224,-6.3905 6.472223,-8.2864 17.324636,-9.64296 60.440093,6.01459 74.495933,-6.52126 2.63138,-2.36988 4.38019,-5.70405 4.88686,-9.20167 0.22881,-1.58537 0.22881,-3.25245 -0.049,-4.82148 -5.18104,-21.75386 -14.38271,-42.73955 -22.930623,-63.4147 -3.710087,-10.72166 0.702793,-22.473 10.558223,-28.07899"
       id="path85-0"
       style="fill:#ffffff" />
    <path
       style="fill:none;stroke:#000000;stroke-width:0.105"
       id="path95-9"
       d="m 308.883,661.854 c 7.461,-4.225 16.298,-5.37 24.589,-3.183 2.722,0.716 5.554,1.851 7.979,3.282 0.166,0.122 0.314,0.293 0.408,0.477 0.188,0.355 0.217,0.763 0.088,1.142 -0.527,1.265 -1.081,2.55 -1.405,3.88 -0.021,0.137 -0.015,0.276 0.023,0.41 0.07,0.253 0.236,0.46 0.466,0.586 0.105,0.056 0.216,0.093 0.335,0.105 1.225,0.103 2.552,-0.166 3.758,0.038 0.251,0.063 0.473,0.233 0.598,0.46 0.056,0.099 0.099,0.226 0.111,0.338 l 0.007,0.06 0.002,0.06 -10e-4,0.061 -0.005,0.06 -0.009,0.058 -0.013,0.059 -1.173,4.746 -39.099,-0.001 -1.173,-4.745 -0.013,-0.059 -0.009,-0.058 -0.005,-0.06 -10e-4,-0.061 c 0,-0.104 0.017,-0.195 0.049,-0.293 0.067,-0.208 0.21,-0.391 0.396,-0.507 1.06,-0.59 3.698,0.368 4.558,-0.399 0.161,-0.145 0.268,-0.349 0.299,-0.563 0.014,-0.097 0.014,-0.199 -0.003,-0.295 -0.317,-1.331 -0.88,-2.615 -1.403,-3.88 -0.227,-0.656 0.043,-1.375 0.646,-1.718 z"
       clip-path="url(#SVGID_10_-1)"
       transform="matrix(16.343996,0,0,16.343996,-4938.29,-10613.566)" />
    <path
       d="m 274.75827,254.03091 c -0.98064,-3.95525 -1.48731,-8.25372 -1.06236,-12.48681 -4.9032,1.09505 -16.71991,4.38019 -22.81622,6.14534 1.7815,2.77848 3.75912,6.48857 5.03395,11.83305 l 5.62234,19.41667 -20.62613,6.43954 -6.96254,-20.08678 c -1.79784,-4.88685 -1.97762,-7.51823 -2.10838,-11.80036 -6.47222,1.8959 -17.29194,5.76943 -22.34224,7.64899 2.8602,3.20342 4.88686,7.33845 6.29244,11.57155 l 19.7272,57.59624 c 1.56903,4.24944 2.43526,7.63265 2.28816,12.86273 5.76943,-2.02666 15.41239,-5.63868 22.34225,-7.5019 -3.563,-4.7561 -4.73976,-7.77974 -5.73675,-10.72166 l -8.07393,-23.9603 c 0,0 19.64548,-6.32512 19.64548,-6.30878 0,0 6.83179,23.24116 6.83179,23.25751 1.58537,6.40684 1.74881,9.85543 1.27483,13.48379 6.09631,-1.69977 16.81798,-4.44556 22.62009,-5.62233 -2.54966,-3.15439 -4.31481,-7.77974 -5.39351,-12.56854 l -16.55647,-59.19795"
       id="path97-4" />
    <path
       d="m 364.42143,304.01085 c -0.049,4.93589 -0.16344,9.8064 -1.83053,13.51649 3.05633,-0.0981 7.2077,-0.34323 11.47349,-0.34323 4.28212,-0.0163 8.56425,0.21247 11.48983,0.27785 -1.47096,-2.46794 -1.94494,-9.20167 -1.89591,-13.51648 l 0.0327,-62.13988 c 0.16344,-4.41288 0.16344,-7.19136 1.79784,-12.22531 -7.48555,-0.32688 -16.4584,-0.4086 -23.11041,-0.049 1.25849,3.71009 1.86322,8.22103 1.94494,12.60122 l 0.0981,61.87837"
       id="path99-8" />
    <path
       d="m 304.76584,310.56479 c 1.06236,5.78578 0.73548,10.29672 0.0654,13.46746 12.5195,-2.4516 38.14689,-5.85115 48.63973,-6.24341 l -1.40558,-19.04076 c 0,0 -4.4946,3.49762 -11.17929,4.20041 l -18.81194,2.33719 -2.72945,-20.51171 c 0,0 11.68596,-1.35655 11.65327,-1.35655 5.32814,-0.49032 9.62661,1.29117 9.62661,1.29117 l -2.35353,-20.75687 c -1.06236,0.57204 -2.32085,2.07568 -9.03823,2.66407 l -12.56854,1.56902 -2.68041,-18.0928 c 0,0 8.41716,-1.48731 19.08979,-2.72945 8.33543,-0.96429 12.83003,0.73548 12.83003,0.73548 l -1.17676,-17.53711 c -18.28894,1.50365 -34.66562,3.92256 -53.42853,7.3548 2.25547,3.8245 3.05633,7.07695 3.95525,12.6666 l 9.5122,59.98246"
       id="path101-8" />
    <path
       d="m 398.98898,305.40009 c -0.4086,3.49762 -1.30752,8.89113 -3.33417,12.43778 5.73674,0.45763 15.15088,1.02967 20.90397,1.87956 -1.47096,-4.03697 -0.9643,-9.36511 -0.5557,-12.86272 l 3.64471,-39.22559 c 0.1471,0.42494 14.4481,48.05134 16.86701,54.89948 3.95524,0.68645 12.47047,2.38622 17.55345,3.5303 -0.88258,-4.4946 -0.58839,-7.43652 0.0981,-11.83305 l -0.0327,-0.0163 c 0,0 12.65026,-61.53514 12.63391,-61.5188 1.27483,-5.55695 1.84687,-8.56425 4.60901,-11.99649 -5.32814,-1.12774 -15.67389,-3.43224 -20.82225,-4.33116 0.76817,3.25246 0.76817,6.66835 -0.71914,13.23864 l -7.24039,37.36237 -16.55646,-54.24572 c -4.80514,-0.63742 -14.31735,-1.73246 -21.19817,-2.14106 1.30752,4.57632 0.76817,9.21801 0.39226,12.71563 l -6.24341,62.10718"
       id="path103-2" />
    <path
       d="m 519.75477,324.94751 c -3.49762,0.70279 -10.18231,0 -14.1539,-1.20946 l -18.46872,-5.96555 50.92789,-42.77224 -3.17073,-15.49411 c -12.86273,-4.83782 -36.92109,-12.42144 -48.60705,-15.2326 l -4.91954,17.45538 c 3.13805,-0.94795 9.31608,-0.049 12.65025,0.89892 0,0 22.6201,6.91351 22.60375,6.89717 l -51.74509,43.14815 1.09505,16.22959 c 12.91175,3.10536 34.86174,10.11693 46.8092,14.80766 l 6.97889,-18.76291"
       id="path105-4" />
    <path
       d="m 98.978591,381.13817 h 18.076459 c 21.75386,-0.0163 52.10466,-0.0163 52.10466,-0.0163 31.74004,0 47.52834,-27.3435 36.3327,-57.22033 L 176.69429,246.3002 c 35.62991,-15.00379 110.8123,-42.75589 197.90945,-42.75589 87.09715,0 162.54104,27.7521 198.15461,42.75589 l -28.79812,77.60129 c -11.19564,29.87683 4.59266,57.22033 36.3327,57.22033 0,0 30.36714,0 52.10466,0.0163 h 39.48709 l 4.80514,-16.68722 -96.39689,0.21247 c -16.63819,0 -28.25877,-12.27434 -20.92032,-34.22433 0,0 23.79686,-64.19921 34.74734,-93.14443 -37.98345,-17.45539 -123.39717,-50.66639 -219.61427,-50.66639 -96.20076,0 -181.61449,33.19466 -219.59793,50.66639 10.93413,28.94522 34.73099,93.14443 34.73099,93.14443 7.42017,22.17881 -4.96858,34.01186 -20.92032,34.01186 H 72.239814 l 3.955247,16.68722 h 22.78353"
       id="path107-5"
       style="fill:#00a84f" />
    <path
       d="m 72.22347,364.4346 -5.360831,-22.09708 h 89.352631 c 10.41112,0 13.71261,-3.6774 8.97285,-16.18055 l -37.77098,-99.94354 c 24.15643,-12.55219 126.06125,-62.09084 247.26832,-62.09084 121.20707,0 223.11189,49.53865 247.26832,62.09084 l -37.77098,99.94354 c -4.73976,12.5195 -1.45462,16.18055 8.97285,16.18055 h 89.35263 l -5.85115,22.08074 c -6.65201,0.0163 -13.20595,0.0327 -23.07772,0.0327 h 0.4086 l -73.69508,0.21247 c -16.63819,0 -28.25877,-12.27434 -20.90397,-34.22433 0,0 23.78051,-64.19921 34.73099,-93.14443 -37.98345,-17.45539 -123.39717,-50.66639 -219.61427,-50.66639 -96.20076,0 -181.61449,33.19466 -219.59793,50.66639 10.93413,28.94522 34.73099,93.14443 34.73099,93.14443 7.42017,22.17881 -4.96858,34.01186 -20.92032,34.01186 H 95.023344 L 72.22347,364.4346"
       id="path109-5"
       style="fill:#c59952" />
    <path
       d="m 291.28205,354.69358 c 0,-1.73246 -0.0327,-1.99396 -0.99699,-2.10837 l -0.2615,-0.0327 c -0.0981,-0.0654 -0.0654,-0.35957 0.0327,-0.4086 0.70279,0.0327 1.25849,0.049 1.92859,0.049 h 3.05633 c 1.02967,0 1.99396,0 2.19009,-0.049 0.0981,0.29419 0.21247,1.4873 0.26151,2.23913 -0.049,0.0981 -0.32688,0.13075 -0.4086,0.0327 -0.22882,-0.80085 -0.37592,-1.37289 -1.2258,-1.61805 -0.34323,-0.0817 -0.86623,-0.0981 -1.58537,-0.0981 h -1.17677 c -0.47397,0 -0.47397,0.0327 -0.47397,0.6701 v 3.35052 c 0,0.47397 0.049,0.47397 0.53935,0.47397 h 0.93161 c 0.68644,0 1.19311,-0.0327 1.37289,-0.0981 0.21247,-0.0981 0.32688,-0.17978 0.4086,-0.58838 l 0.13075,-0.68645 c 0.0654,-0.0981 0.35957,-0.0981 0.4086,0.0163 0,0.39226 -0.049,1.04602 -0.049,1.69978 0,0.58838 0.049,1.2258 0.049,1.61805 -0.049,0.11441 -0.34322,0.11441 -0.4086,0.0163 l -0.14709,-0.65376 c -0.0654,-0.31054 -0.17979,-0.5557 -0.52301,-0.63742 -0.21247,-0.0654 -0.60473,-0.0817 -1.24214,-0.0817 h -0.93161 c -0.49032,0 -0.53935,0.0163 -0.53935,0.44129 v 2.36988 c 0,0.88258 0.049,1.45461 0.31053,1.71612 0.17979,0.22881 0.52301,0.39225 1.96128,0.39225 1.25849,0 1.73246,-0.0817 2.07569,-0.27784 0.29419,-0.16344 0.73548,-0.75183 1.16042,-1.61806 0.11441,-0.0817 0.34323,-0.0327 0.4086,0.11441 -0.11441,0.58838 -0.52301,1.87956 -0.73548,2.35353 -1.47096,-0.0327 -2.90923,-0.049 -4.36384,-0.049 h -1.45462 c -0.70279,0 -1.25849,0.0163 -2.22278,0.049 -0.0981,-0.049 -0.11441,-0.34322 -0.0327,-0.42494 l 0.53935,-0.049 c 0.93161,-0.0817 1.01333,-0.34323 1.01333,-2.09203 v -6.03094"
       id="path111-1"
       style="fill:#bf2f38" />
    <path
       d="m 302.88629,363.503 c -1.3729,0 -2.23913,-0.42495 -2.54967,-0.62108 -0.21247,-0.34322 -0.44129,-1.55267 -0.49032,-2.33719 0.0817,-0.14709 0.32688,-0.16344 0.39226,-0.049 0.2615,0.84989 0.96429,2.46794 2.84385,2.46794 1.3729,0 2.01031,-0.91526 1.99397,-1.92859 -0.0163,-0.71913 -0.17978,-1.53633 -1.38924,-2.33719 l -1.56902,-1.02967 c -0.8172,-0.53935 -1.7815,-1.50365 -1.81419,-2.87654 -0.0327,-1.60171 1.14408,-2.89289 3.25246,-2.89289 0.50666,0 1.09505,0.0817 1.51999,0.22882 0.21247,0.049 0.44129,0.0981 0.57204,0.0981 0.16344,0.39226 0.32688,1.34021 0.32688,2.043 -0.049,0.11441 -0.31054,0.16344 -0.39226,0.0327 -0.22881,-0.80086 -0.70279,-1.86322 -2.25547,-1.86322 -1.60171,0 -1.91224,1.06236 -1.8959,1.84687 0.0163,0.98064 0.8172,1.66709 1.42193,2.05935 l 1.34021,0.84988 c 1.02967,0.65376 2.05934,1.61806 2.09203,3.18708 0.0327,1.86322 -1.29118,3.12171 -3.39955,3.12171"
       id="path113-7"
       style="fill:#bf2f38" />
    <path
       d="m 313.06859,360.72452 c 0,1.73246 0.0327,1.99396 0.9643,2.09203 l 0.52301,0.049 c 0.0981,0.0654 0.0654,0.37591 -0.0327,0.42494 -0.93161,-0.0327 -1.47096,-0.049 -2.12472,-0.049 -0.65376,0 -1.2258,0.0163 -2.27181,0.049 -0.0981,-0.049 -0.13076,-0.34322 0,-0.42494 l 0.58838,-0.049 c 0.93161,-0.0817 1.01333,-0.34323 1.01333,-2.09203 v -7.48555 c 0,-0.52301 0,-0.53935 -0.49032,-0.53935 h -0.89892 c -0.68645,0 -1.60171,0.0327 -2.01031,0.42494 -0.37592,0.35957 -0.53936,0.73548 -0.71914,1.14408 -0.13075,0.11441 -0.35957,0.0163 -0.42494,-0.13075 0.2615,-0.73548 0.50666,-1.79784 0.62107,-2.46795 0.049,-0.0327 0.2615,-0.0654 0.31053,0 0.0981,0.50667 0.62108,0.50667 1.38924,0.50667 h 6.58663 c 0.88258,0 1.02968,-0.0327 1.25849,-0.45763 0.0817,-0.0327 0.29419,-0.0163 0.32688,0.049 -0.19613,0.68645 -0.32688,2.043 -0.27785,2.53332 -0.0654,0.14709 -0.32688,0.14709 -0.4086,0.049 -0.049,-0.42495 -0.17978,-1.02967 -0.4086,-1.2258 -0.4086,-0.35957 -0.99698,-0.42494 -1.8959,-0.42494 h -1.16042 c -0.47398,0 -0.45764,0.0163 -0.45764,0.57204 v 7.45286"
       id="path115-1"
       style="fill:#bf2f38" />
    <path
       d="m 319.34469,353.50047 c 0,-0.73548 -0.049,-0.96429 -0.47398,-1.02967 l -0.22881,-0.0163 c -0.0817,-0.0654 -0.0981,-0.24516 0.0163,-0.2942 0.86623,-0.049 1.69978,-0.0817 2.56601,-0.0817 0.88257,0 1.60171,0.0654 2.27181,0.34323 1.38924,0.49032 2.09204,1.69977 2.09204,3.10536 0,1.3402 -0.63742,2.50063 -1.79784,3.15439 -0.67011,0.35957 -1.52,0.50666 -2.30451,0.50666 -0.65376,0 -1.32386,-0.0981 -1.68343,-0.0981 -0.44129,0 -0.8172,0.0327 -1.29117,0.049 -0.0654,-0.049 -0.0817,-0.21247 -0.0163,-0.27785 l 0.22882,-0.0327 c 0.60473,-0.0981 0.62107,-0.21247 0.62107,-1.32386 v -4.00428 m 0.84989,3.79181 c 0,0.55569 0.0327,0.89892 0.21247,1.14408 0.21247,0.32688 0.60473,0.42494 1.25849,0.42494 1.99396,0 2.89288,-1.34021 2.89288,-3.31783 0,-1.14408 -0.53935,-3.1217 -3.23611,-3.1217 -0.60473,0 -0.94795,0.0817 -1.02967,0.14709 -0.0817,0.0654 -0.0981,0.32688 -0.0981,0.80086 v 3.92256 z"
       id="path117-1"
       style="fill:#bf2f38" />
    <path
       d="m 321.73091,360.87161 c -0.60473,0 -1.0787,0.5557 -1.0787,1.2258 0,0.68645 0.47397,1.24215 1.0787,1.24215 0.58839,0 1.06236,-0.5557 1.06236,-1.24215 0,-0.6701 -0.47397,-1.2258 -1.06236,-1.2258"
       id="path119-5"
       style="fill:#bf2f38" />
    <path
       d="m 424.58368,354.69358 c 0,-1.73246 -0.0327,-1.99396 -0.98064,-2.10837 l -0.2615,-0.0327 c -0.0981,-0.0654 -0.0654,-0.35957 0.0163,-0.4086 0.71914,0.0327 1.25849,0.049 1.92859,0.049 h 3.05633 c 1.04601,0 2.01031,0 2.20644,-0.049 0.0981,0.29419 0.19613,1.4873 0.2615,2.23913 -0.0654,0.0981 -0.32688,0.13075 -0.4086,0.0327 -0.24516,-0.80085 -0.39225,-1.37289 -1.24214,-1.61805 -0.34323,-0.0817 -0.86623,-0.0981 -1.56903,-0.0981 h -1.19311 c -0.47397,0 -0.47397,0.0327 -0.47397,0.6701 v 3.35052 c 0,0.47397 0.049,0.47397 0.53935,0.47397 h 0.94795 c 0.6701,0 1.17677,-0.0327 1.3729,-0.0981 0.19612,-0.0981 0.31053,-0.17978 0.39225,-0.58838 l 0.1471,-0.68645 c 0.0654,-0.0981 0.32688,-0.0981 0.4086,0.0163 0,0.39226 -0.0817,1.04602 -0.0817,1.69978 0,0.58838 0.0817,1.2258 0.0817,1.61805 -0.0817,0.11441 -0.34323,0.11441 -0.4086,0.0163 L 429.16,358.51808 c -0.0654,-0.31054 -0.17979,-0.5557 -0.49032,-0.63742 -0.24516,-0.0654 -0.63742,-0.0817 -1.25849,-0.0817 h -0.94795 c -0.49032,0 -0.53935,0.0163 -0.53935,0.44129 v 2.36988 c 0,0.88258 0.049,1.45461 0.29419,1.71612 0.21247,0.22881 0.53935,0.39225 1.97762,0.39225 1.25849,0 1.73247,-0.0817 2.09203,-0.27784 0.27785,-0.16344 0.73548,-0.75183 1.14408,-1.61806 0.13076,-0.0817 0.34323,-0.0327 0.4086,0.11441 -0.1144,0.58838 -0.50666,1.87956 -0.71913,2.35353 -1.47096,-0.0327 -2.92558,-0.049 -4.38019,-0.049 h -1.45462 c -0.70279,0 -1.25849,0.0163 -2.20644,0.049 -0.0981,-0.049 -0.13075,-0.34322 -0.0327,-0.42494 l 0.53936,-0.049 c 0.91526,-0.0817 0.99698,-0.34323 0.99698,-2.09203 v -6.03094"
       id="path121-2"
       style="fill:#bf2f38" />
    <path
       d="m 436.35136,363.503 c -1.3729,0 -2.25547,-0.42495 -2.56601,-0.62108 -0.19613,-0.34322 -0.44129,-1.55267 -0.47398,-2.33719 0.0654,-0.14709 0.31054,-0.16344 0.37592,-0.049 0.2615,0.84989 0.96429,2.46794 2.86019,2.46794 1.35656,0 2.01032,-0.91526 1.99397,-1.92859 -0.0327,-0.71913 -0.19613,-1.53633 -1.40558,-2.33719 l -1.55268,-1.02967 c -0.83354,-0.53935 -1.79784,-1.50365 -1.83053,-2.87654 -0.0327,-1.60171 1.14408,-2.89289 3.25246,-2.89289 0.50666,0 1.11139,0.0817 1.53633,0.22882 0.21247,0.049 0.42495,0.0981 0.5557,0.0981 0.16344,0.39226 0.32688,1.34021 0.34322,2.043 -0.049,0.11441 -0.34322,0.16344 -0.4086,0.0327 -0.22881,-0.80086 -0.68645,-1.86322 -2.25547,-1.86322 -1.58537,0 -1.8959,1.06236 -1.8959,1.84687 0.0327,0.98064 0.8172,1.66709 1.43827,2.05935 l 1.32386,0.84988 c 1.02967,0.65376 2.05935,1.61806 2.09203,3.18708 0.0327,1.86322 -1.27483,3.12171 -3.3832,3.12171"
       id="path123-7"
       style="fill:#bf2f38" />
    <path
       d="m 446.50098,360.72452 c 0,1.73246 0.049,1.99396 0.99698,2.09203 l 0.50667,0.049 c 0.0981,0.0654 0.0654,0.37591 -0.0327,0.42494 -0.91527,-0.0327 -1.47096,-0.049 -2.12472,-0.049 -0.65376,0 -1.2258,0.0163 -2.27182,0.049 -0.0817,-0.049 -0.13075,-0.34322 0,-0.42494 l 0.58839,-0.049 c 0.94795,-0.0817 1.02967,-0.34323 1.02967,-2.09203 v -7.48555 c 0,-0.52301 0,-0.53935 -0.49032,-0.53935 h -0.88258 c -0.70279,0 -1.60171,0.0327 -2.01031,0.42494 -0.39225,0.35957 -0.55569,0.73548 -0.71913,1.14408 -0.1471,0.11441 -0.37592,0.0163 -0.42495,-0.13075 0.24516,-0.73548 0.49032,-1.79784 0.60473,-2.46795 0.049,-0.0327 0.27785,-0.0654 0.31054,0 0.0981,0.50667 0.63741,0.50667 1.38924,0.50667 h 6.58663 c 0.86623,0 1.02967,-0.0327 1.27483,-0.45763 0.0817,-0.0327 0.27785,-0.0163 0.32688,0.049 -0.17979,0.68645 -0.32688,2.043 -0.27785,2.53332 -0.0654,0.14709 -0.32688,0.14709 -0.42494,0.049 -0.049,-0.42495 -0.17979,-1.02967 -0.4086,-1.2258 -0.39226,-0.35957 -0.99699,-0.42494 -1.89591,-0.42494 h -1.16042 c -0.47398,0 -0.47398,0.0163 -0.47398,0.57204 v 7.45286"
       id="path125-6"
       style="fill:#bf2f38" />
    <path
       d="m 452.79342,353.50047 c 0,-0.73548 -0.049,-0.96429 -0.47398,-1.02967 l -0.24516,-0.0163 c -0.0817,-0.0654 -0.0817,-0.24516 0.0163,-0.2942 0.88258,-0.049 1.71612,-0.0817 2.5987,-0.0817 0.86623,0 1.60171,0.0654 2.25547,0.34323 1.40559,0.49032 2.10838,1.69977 2.10838,3.10536 0,1.3402 -0.63742,2.50063 -1.79784,3.15439 -0.68645,0.35957 -1.53634,0.50666 -2.32085,0.50666 -0.65376,0 -1.32386,-0.0981 -1.66709,-0.0981 -0.44129,0 -0.8172,0.0327 -1.29117,0.049 -0.0817,-0.049 -0.0981,-0.21247 -0.0327,-0.27785 l 0.22881,-0.0327 c 0.60473,-0.0981 0.62108,-0.21247 0.62108,-1.32386 v -4.00428 m 0.84988,3.79181 c 0,0.55569 0.0327,0.89892 0.19613,1.14408 0.24516,0.32688 0.63742,0.42494 1.29118,0.42494 1.99397,0 2.87654,-1.34021 2.87654,-3.31783 0,-1.14408 -0.53935,-3.1217 -3.23611,-3.1217 -0.60473,0 -0.94795,0.0817 -1.02967,0.14709 -0.0817,0.0654 -0.0981,0.32688 -0.0981,0.80086 v 3.92256 z"
       id="path127-1"
       style="fill:#bf2f38" />
    <path
       d="m 455.17964,360.87161 c -0.60473,0 -1.0787,0.5557 -1.0787,1.2258 0,0.68645 0.47397,1.24215 1.0787,1.24215 0.58838,0 1.0787,-0.5557 1.0787,-1.24215 0,-0.6701 -0.49032,-1.2258 -1.0787,-1.2258"
       id="path129-4"
       style="fill:#bf2f38" />
    <path
       d="m 341.39274,344.98525 h 0.80086 v 20.33193 c 0,3.0073 0,4.21675 3.88987,4.21675 v 0.6701 h -11.63693 v -0.6701 c 3.59568,-0.0817 3.97159,-0.45763 3.97159,-3.25245 v -14.8567 c 0,-2.566 -0.37591,-3.49761 -1.83052,-3.49761 -0.88258,0 -1.56903,0.2615 -2.36988,0.57204 l -0.32688,-0.57204 7.50189,-2.94192"
       id="path131-2"
       style="fill:#bf2f38" />
    <path
       d="m 349.90796,350.80371 c 0,-3.66105 4.11869,-5.80212 8.3191,-5.80212 5.44255,0 8.4335,2.74579 8.4335,5.36083 0,2.87655 -3.62837,4.82148 -6.3905,6.16169 3.17073,2.01031 7.04426,4.24944 7.04426,7.79609 0,3.98793 -4.2331,6.43953 -8.95651,6.43953 -7.04426,0 -8.85845,-4.44557 -8.85845,-6.04728 0,-3.07267 3.25246,-5.29545 6.16169,-6.96254 -2.8602,-1.91225 -5.75309,-3.71009 -5.75309,-6.9462 m 13.4838,-0.70279 c 0,-2.53332 -1.91225,-4.00428 -5.08298,-4.00428 -2.51698,0 -5.13202,1.35655 -5.13202,3.5303 0,2.90924 3.64471,4.4946 6.03094,6.22707 2.36987,-1.73247 4.18406,-3.0073 4.18406,-5.75309 z m -10.39478,14.35003 c 0,2.84385 2.01031,5.14836 5.73674,5.14836 2.74579,0 5.32814,-1.35655 5.32814,-3.71009 0,-2.09203 -1.87956,-3.90622 -7.38748,-7.43652 -2.27182,1.40559 -3.6774,3.69374 -3.6774,5.99825 z"
       id="path133-3"
       style="fill:#bf2f38" />
    <path
       d="m 390.81698,345.65535 c -7.28942,0.17979 -12.27434,5.52427 -13.76164,10.7707 1.86321,-1.1114 4.20041,-1.81419 6.52125,-1.81419 5.00127,0 7.84512,3.69375 7.84512,7.33846 0,4.33116 -3.87353,8.77672 -9.6593,8.77672 -6.71738,0 -9.83909,-5.78577 -9.83909,-10.28037 0,-7.89415 8.15566,-15.46142 17.91302,-15.46142 h 0.98064 v 0.6701 m -9.38145,10.52554 c -1.6344,0 -3.2688,0.76816 -4.70707,1.55268 -0.24516,1.27483 -0.42494,2.22278 -0.42494,3.77546 0,2.68041 1.50364,8.09028 5.8348,8.09028 3.87353,0 5.23008,-3.23611 5.23008,-5.81847 0,-2.87654 -1.40558,-7.59995 -5.93287,-7.59995 z"
       id="path135-2"
       style="fill:#bf2f38" />
    <path
       d="m 395.72018,370.04059 c 7.38749,0 12.04553,-5.39351 13.72896,-10.65628 -1.91225,0.99698 -4.15138,1.81418 -6.52126,1.81418 -5.05029,0 -7.84511,-3.74277 -7.84511,-7.37114 0,-4.39653 3.77546,-8.8421 9.6593,-8.8421 6.61932,0 9.83908,5.75309 9.83908,10.3294 0,6.97889 -7.24039,15.41239 -18.10914,15.41239 h -0.75183 v -0.68645 m 14.51347,-15.73926 c 0,-2.61504 -1.4873,-8.22103 -5.86749,-8.22103 -3.97159,0 -5.23008,3.28514 -5.23008,5.93287 0,2.72944 1.25849,7.53458 5.63868,7.53458 1.60171,0 3.82449,-0.6701 5.03395,-1.56902 0.24516,-1.20946 0.42494,-2.3372 0.42494,-3.6774 z"
       id="path137-2"
       style="fill:#bf2f38" />
  </g>
</svg>
